<svg height="472pt" viewBox="-96 0 472 472" width="472pt" xmlns="http://www.w3.org/2000/svg"><path d="m271.699219 372.769531v60.789063c0 16.785156-13.605469 30.390625-30.390625 30.390625h-202.617188c-16.785156 0-30.390625-13.605469-30.390625-30.390625v-60.789063zm0 0" fill="#00acea"/><path d="m75.820312 219.359375v106.359375c-.003906 9.046875 7.332032 16.382812 16.378907 16.382812h95.601562c9.046875 0 16.382813-7.335937 16.378907-16.382812v-106.359375h-19.640626v-85.179687h-2.96875l.128907-17.28125-19.398438.113281v17.167969h-2.972656v85.179687h-36.207031l.097656-65.371094-13.878906-33.847656-13.878906 33.847656.097656 65.371094zm195.878907-135.328125v288.738281h-263.398438v-288.738281zm0 0" fill="#00efd1"/><path d="m271.699219 38.441406v45.589844h-263.398438v-45.589844c0-16.785156 13.605469-30.390625 30.390625-30.390625h202.617188c16.785156 0 30.390625 13.605469 30.390625 30.390625zm0 0" fill="#00acea"/><path d="m204.179688 273.988281v51.730469c.003906 9.046875-7.332032 16.382812-16.378907 16.382812h-95.601562c-9.046875 0-16.382813-7.335937-16.378907-16.382812v-51.730469zm0 0" fill="#f4b844"/><path d="m123.121094 219.359375h81.058594v54.628906h-128.359376v-54.628906zm0 0" fill="#fedb41"/><path d="m181.570312 134.179688h2.96875v85.179687h-25.210937v-85.179687zm0 0" fill="#f4b844"/><path d="m181.699219 116.898438-.128907 17.28125h-19.269531v-17.167969zm0 0" fill="#fedb41"/><path d="m109.339844 120.140625 13.878906 33.847656h-27.757812zm0 0" fill="#fedb41"/><path d="m123.21875 153.988281-.097656 65.371094h-27.5625l-.097656-65.371094zm0 0" fill="#f4b844"/><g fill="#083863"><path d="m279 38.390625c0-21.203125-17.1875-38.390625-38.390625-38.390625h-202.21875c-21.203125 0-38.390625 17.1875-38.390625 38.390625v395.21875c0 21.203125 17.1875 38.390625 38.390625 38.390625h202.21875c21.203125 0 38.390625-17.1875 38.390625-38.390625zm-15 326.609375h-248v-273h248zm-22.691406 91h-202.617188c-12.429687-.011719-22.539062-10.011719-22.691406-22.441406v-52.558594h248v52.558594c-.152344 12.429687-10.261719 22.429687-22.691406 22.441406zm22.691406-417.558594v37.558594h-248v-37.558594c.152344-12.429687 10.261719-22.429687 22.691406-22.441406h202.617188c12.429687.011719 22.539062 10.011719 22.691406 22.441406zm0 0"/><path d="m172.929688 36h-65.859376c-4.417968 0-8 3.582031-8 8s3.582032 8 8 8h65.859376c4.417968 0 8-3.582031 8-8s-3.582032-8-8-8zm0 0"/><path d="m160 410h-40c-4.417969 0-8 3.582031-8 8s3.582031 8 8 8h40c4.417969 0 8-3.582031 8-8s-3.582031-8-8-8zm0 0"/><path d="m65.121094 227h2.878906v98.71875c-.03125 6.4375 2.507812 12.617188 7.050781 17.175781 4.542969 4.554688 10.714844 7.113281 17.148438 7.105469h95.601562c6.433594.007812 12.605469-2.550781 17.148438-7.105469 4.542969-4.558593 7.082031-10.738281 7.050781-17.175781v-98.71875h2.878906c4.417969 0 8-3.582031 8-8s-3.582031-8-8-8h-21.878906v-76.820312c-.085938-2.425782-1.238281-4.6875-3.152344-6.179688l-.03125-11.039062c-.007812-2.132813-.871094-4.171876-2.394531-5.660157-1.53125-1.492187-3.585937-2.320312-5.722656-2.300781h-.042969l-19.550781.058594c-4.421875-.007813-8.03125 3.53125-8.105469 7.953125v10.953125c-1.957031 1.457031-3.074219 3.777344-3 6.214844v2.859374l-5.675781-.027343c-3.105469-.046875-6.09375 1.179687-8.277344 3.386719-2.019531 2.054687-3.121094 4.839843-3.046875 7.722656v39.417968c0 4.417969 3.582031 8 8 8s8-3.582031 8-8v-34.507812l1 .007812v57.960938h-19.867188l.085938-57.175781c.003906-1.015625-.203125-2.023438-.597656-2.960938l-13.882813-33.804687c-1.238281-2.996094-4.164062-4.949219-7.410156-4.941406-3.242187.007812-6.164063 1.972656-7.386719 4.976562l-13.882812 33.855469c-.394532.90625-.597656 1.882812-.597656 2.871093l.085937 57.179688h-22.425781c-4.417969 0-8 3.582031-8 8s3.582031 8 8 8zm122.679687 107h-95.601562c-2.191407.011719-4.296875-.859375-5.839844-2.414062-1.542969-1.558594-2.394531-3.671876-2.359375-5.867188v-43.71875h112v43.71875c.035156 2.195312-.816406 4.308594-2.359375 5.867188-1.542969 1.554687-3.648437 2.425781-5.839844 2.414062zm8.199219-68h-112v-39h9.644531c.617188 1 1.253907.238281 1.914063.238281.664062 0 1.300781.761719 1.917968-.238281h23.730469c.613281 1 1.253907.238281 1.914063.238281s1.300781.761719 1.914062-.238281h70.964844zm-22.511719-141.144531.140625 1.144531h-3.628906v-1.035156zm-6.488281 20.617187c0-.125.019531-.246094.019531-.371094 0-.128906-.019531-.273437-.019531-.40625v-2.695312h10v69h-10zm-55.707031.527344h-3.90625l1.953125-4.765625zm-7.820313 16h11.734375l-.074219 49h-11.585937zm0 0"/></g></svg>