<?xml version="1.0" encoding="iso-8859-1"?>
<!-- Generator: Adobe Illustrator 21.0.0, SVG Export Plug-In . SVG Version: 6.00 Build 0)  -->
<svg xmlns="http://www.w3.org/2000/svg" xmlns:xlink="http://www.w3.org/1999/xlink" version="1.1" id="Capa_1" x="0px" y="0px" viewBox="0 0 512 512" style="enable-background:new 0 0 512 512;" xml:space="preserve" width="512" height="512">
<g>
	<g>
		<g>
			<g>
				<g>
					<g>
						<g>
							<g>
								<g>
									<circle style="fill:#555A66;" cx="256" cy="256" r="256"/>
								</g>
							</g>
						</g>
					</g>
				</g>
			</g>
		</g>
	</g>
	<path style="fill:#333940;" d="M299.727,508.265C420.278,487.515,512,382.476,512,256c0-12.245-0.879-24.282-2.541-36.068   L380.415,90.888l-21.715,30.5l-30.5-30.5l-28.002,27.775l-27.369-27.775l-28.504,27.274l-26.868-27.274l-28.82,26.958   l-26.552-26.958l-30.5,30.5l25.981,26.387l-25.981,28.984l26.942,27.349l-26.942,28.023l25.509,25.915l-25.509,29.457   l26.107,26.513l-26.107,25.701L299.727,508.265z"/>
	<g>
		<g>
			<polygon style="fill:#FFFFFF;" points="380.414,339.718 349.914,339.718 349.914,309.718 350.414,309.718 350.414,309.218      380.414,309.218    "/>
		</g>
		<g>
			<path style="fill:#FFFFFF;" d="M328.2,339.718h-33.657v-30H328.2V339.718z M272.828,339.718h-33.657v-30h33.657V339.718z      M217.457,339.718H183.8v-30h33.657V339.718z"/>
		</g>
		<g>
			<rect x="131.586" y="309.218" style="fill:#FFFFFF;" width="30.5" height="30.5"/>
		</g>
		<g>
			<path style="fill:#FFFFFF;" d="M161.586,287.503h-30v-33.657h30V287.503z M161.586,232.132h-30v-33.657h30V232.132z      M161.586,176.76h-30v-33.657h30V176.76z"/>
		</g>
		<g>
			<rect x="131.586" y="90.888" style="fill:#FFFFFF;" width="30.5" height="30.5"/>
		</g>
		<g>
			<path style="fill:#FFFFFF;" d="M328.2,120.888h-33.657v-30H328.2V120.888z M272.829,120.888h-33.657v-30h33.657V120.888z      M217.457,120.888H183.8v-30h33.657V120.888z"/>
		</g>
		<g>
			<rect x="294.543" y="90.888" style="fill:#DCE1EB;" width="33.657" height="30"/>
			<rect x="255.905" y="90.888" style="fill:#DCE1EB;" width="16.924" height="30"/>
		</g>
		<g>
			<rect x="349.914" y="90.888" style="fill:#DCE1EB;" width="30.5" height="30.5"/>
		</g>
		<g>
			<path style="fill:#DCE1EB;" d="M380.414,287.503h-30v-33.657h30V287.503z M380.414,232.132h-30v-33.657h30V232.132z      M380.414,176.76h-30v-33.657h30V176.76z"/>
		</g>
	</g>
	<g>
		<path style="fill:#FFC170;" d="M178.967,345.549L228.744,435H379.03l0,0c23.459-26.824,36.389-61.248,36.389-96.883v-67.735    c0-15.305-12.407-27.712-27.712-27.712h0c-6.22,0-11.961,2.049-16.585,5.509v-4.402c0-15.305-12.407-27.712-27.712-27.712h0    c-9.295,0-17.514,4.581-22.542,11.603v-2.366c0-15.305-12.407-27.712-27.712-27.712h0c-11.128,0-20.718,6.562-25.127,16.024    v-7.695c0-15.305-12.407-27.712-27.712-27.712h0c-15.305,0-27.712,12.407-27.712,27.712v45.775    C163.225,254.205,160.79,312.885,178.967,345.549z"/>
	</g>
	<g>
		<path style="fill:#FC9942;" d="M387.706,242.67L387.706,242.67c-6.22,0-11.961,2.049-16.585,5.509v-4.402    c0-15.305-12.407-27.712-27.712-27.712c-9.295,0-17.515,4.581-22.542,11.603v-2.366c0-15.305-12.407-27.712-27.712-27.712l0,0    c-11.128,0-20.718,6.562-25.127,16.024v-7.695c0-9.523-4.806-17.923-12.123-22.911V435H379.03h0    c23.459-26.824,36.388-61.248,36.388-96.883v-67.735C415.418,255.078,403.011,242.67,387.706,242.67z"/>
	</g>
</g>















</svg>
