<svg height="511pt" viewBox="0 -40 511.99883 511" width="511pt" xmlns="http://www.w3.org/2000/svg"><path d="m61.234375 294.863281c19.585937 30.148438 37.980469 54.320313 54.585937 73.628907 38.003907 44.195312 107.46875 40.667968 140.710938-7.207032l76.28125-109.851562-121.511719-187.046875-131.375 25.039062c-57.253906 10.914063-88.710937 72.949219-63.777343 125.632813 10.894531 23.023437 25.5 49.65625 45.085937 79.804687zm0 0" fill="#fcf5af"/><path d="m211.300781 64.386719-84.832031 16.167969c-4.644531 35.523437-6 100.507812 30.699219 160.34375 18.351562 29.921874 16.679687 67.945312-3.613281 96.585937-9.003907 12.707031-19.867188 25.585937-32.5625 36.542969 38.851562 38.261718 103.753906 33.035156 135.542968-12.742188l76.277344-109.851562zm0 0" fill="#f4e74d"/><path d="m454.160156 423.089844c-13.183594 0-23.871094-10.6875-23.871094-23.867188v-245.972656h47.742188v245.972656c0 13.179688-10.6875 23.867188-23.871094 23.867188zm0 0" fill="#546370"/><path d="m430.289062 254.390625c19.363282-3.074219 35.046876-8.007813 47.742188-14.015625v-87.125h-47.742188zm0 0" fill="#3d4751"/><path d="m482.90625 167.03125-47.074219 30.578125c-13.601562 8.839844-31.792969 4.972656-40.628906-8.628906l-21.773437-33.511719 96.332031-62.578125 21.773437 33.511719c8.835938 13.601562 4.972656 31.792968-8.628906 40.628906zm0 0" fill="#6b7d8e"/><path d="m449.414062 153.761719-21.769531-33.511719-54.214843 35.21875 21.773437 33.511719c8.835937 13.601562 27.027344 17.46875 40.628906 8.628906l4.953125-3.214844c13.605469-8.839843 17.46875-27.03125 8.628906-40.632812zm0 0" fill="#8697a6"/><path d="m493.472656 52.667969-43.316406 28.136719-26.414062-40.660157 43.316406-28.140625c11.226562-7.292968 26.242187-4.101562 33.535156 7.125 7.296875 11.230469 4.105469 26.246094-7.121094 33.539063zm0 0" fill="#6b7d8e"/><path d="m466.8125 98.753906-66.652344 43.300782-55.289062-85.113282 66.652344-43.296875c15.632812-10.160156 36.542968-5.71875 46.699218 9.917969l18.511719 28.492188c10.152344 15.636718 5.714844 36.542968-9.921875 46.699218zm0 0" fill="#8697a6"/><path d="m211.300781 64.386719s148.277344-88.738281 205.566407-.546875c57.289062 88.1875-84.058594 187.59375-84.058594 187.59375zm0 0" fill="#a5b1bd"/><path d="m317.707031 128.25c-33.558593-51.652344-81.195312-80.25-106.398437-63.875-25.207032 16.375-18.4375 71.523438 15.121094 123.175781 33.554687 51.652344 81.191406 80.25 106.394531 63.875 25.207031-16.375 18.4375-71.523437-15.117188-123.175781zm0 0" fill="#6b7d8e"/><path d="m317.695312 128.261719c-28.703124-44.1875-67.710937-71.503907-94.164062-68.222657-13.753906 22.835938-4.65625 69.585938 24.046875 113.773438 28.707031 44.1875 67.71875 71.496094 94.175781 68.214844 13.75-22.835938 4.648438-69.578125-24.058594-113.765625zm0 0" fill="#546370"/><path d="m280.640625 84.96875c-24.414063 17.503906-30.976563 51.296875-14.445313 76.746094 16.535157 25.453125 50.078126 33.1875 75.996094 17.996094-5.035156-16.488282-13.265625-34.160157-24.5-51.449219-11.226562-17.289063-24.03125-31.992188-37.050781-43.292969zm0 0" fill="#f9ee80"/><path d="m296.425781 143.082031c9.59375 14.765625 16.988281 29.820313 22.082031 44.171875 8.132813-.695312 16.222657-3.171875 23.683594-7.542968-5.035156-16.484376-13.265625-34.160157-24.5-51.449219-11.230468-17.289063-24.03125-31.992188-37.050781-43.292969-7.140625 5.121094-12.757813 11.636719-16.714844 18.929688 11.433594 10.671874 22.585938 23.921874 32.5 39.183593zm0 0" fill="#eedb00"/><path d="m480.761719 96.050781c7.078125-8.957031 10.105469-20.484375 8.457031-31.675781l8.339844-5.417969c14.675781-9.535156 18.859375-29.234375 9.324218-43.914062-4.617187-7.109375-19.492187-22.640625-43.910156-9.328125l-6.785156 4.410156c-5.0625-4.1875-24.050781-17.445312-48.753906-2.769531l-26.765625 17.386719c-24.132813-9.503907-54.410157-9.929688-89.902344-.976563-38.585937 9.738281-71.355469 27.371094-80.683594 32.664063-.519531.265624-1.03125.550781-1.535156.847656l-130.023437 24.78125c-29.5625 5.636718-54.332032 24.25-67.964844 51.070312-13.648438 26.855469-14.085938 57.890625-1.191406 85.140625 12.167968 25.707031 27.5 52.847657 45.578124 80.679688 18.082032 27.832031 36.648438 52.875 55.191407 74.433593 18.539062 21.558594 44.96875 33.652344 73.15625 33.652344 31.925781 0 62.238281-16.753906 79.402343-41.472656 0 0 76.4375-109.417969 76.894532-109.78125 8.019531-5.925781 33.976562-25.992188 57.328125-53.90625 4.40625 3.503906 14.078125 9.050781 25.875 7.867188v189.480468c0 17.296875 14.070312 31.367188 31.367187 31.367188 17.300782 0 31.371094-14.070313 31.371094-31.367188v-32.445312c0-4.140625-3.355469-7.5-7.5-7.5-4.140625 0-7.5 3.359375-7.5 7.5v32.445312c0 9.023438-7.34375 16.367188-16.371094 16.367188-9.023437 0-16.367187-7.34375-16.367187-16.367188v-194.042968c.71875-.402344 32.738281-21.164063 32.738281-21.164063v151.761719c0 4.140625 3.359375 7.5 7.5 7.5 4.144531 0 7.5-3.359375 7.5-7.5v-161.507813s13.46875-7.28125 17.441406-24.207031c2.25-9.589844.21875-19.488281-5.148437-27.746094zm13.542969-72.835937c5.347656 7.527344 2.824218 18.132812-4.917969 23.164062l-5.25 3.410156c-.355469-.613281-18.195313-28.113281-18.195313-28.113281l5.199219-3.382812c3.753906-2.433594 15.019531-6.554688 23.164063 4.921875zm-78.699219-3.285156c18.695312-10.90625 32.507812 1.835937 36.328125 7.71875l18.507812 28.492187c7.890625 12.140625 4.429688 28.4375-7.714844 36.328125l-24.765624 16.085938c-.042969-17.261719-4.945313-33.628907-14.804688-48.804688-7.335938-11.292969-16.398438-20.34375-27.046875-27.152344zm-165.234375 337.078124c-14.496094 20.878907-37.363282 33.605469-62.742188 34.914063-25.421875 1.304687-49.515625-9.007813-66.121094-28.316406-18.105468-21.054688-36.265624-45.558594-53.984374-72.828125-17.710938-27.269532-32.71875-53.820313-44.597657-78.925782-10.894531-23.023437-10.527343-49.238281 1.003907-71.925781 11.511718-22.652343 32.4375-38.371093 57.402343-43.132812l111.820313-21.3125c-5.117188 12.144531-6.011719 28.375-2.316406 47.257812.792968 4.0625 4.734374 6.707031 8.800781 5.917969 4.0625-.796875 6.714843-4.734375 5.917969-8.800781-4.640626-23.714844 1.015624-50.398438 11.675781-56.378907 9.589843-4.773437 24.121093 4.066407 40.277343 13.765626 3.804688 2.285156 7.609376 4.902343 11.386719 7.796874-21.617187 20.984376-25.898437 54.726563-8.988281 80.761719 12.253906 18.859375 32.722656 29.203125 53.710938 29.203125 7.976562 0 16.027343-1.503906 23.730468-4.59375 1.109375 4.628906 1.957032 9.171875 2.496094 13.578125 2.296875 18.699219-1.113281 33.039063-9.367188 39.863281-9.558593 7.578126-26.65625 5.058594-43.871093-5.277343-19.136719-11.492188-38.277344-31.0625-53.898438-55.105469-7.160156-11.027344-13.195312-22.40625-17.933593-33.820312-1.585938-3.828126-5.972657-5.640626-9.800782-4.054688s-5.640625 5.976562-4.054687 9.800781c5.085937 12.261719 11.550781 24.453125 19.210937 36.246094 16.835938 25.917969 37.703125 47.152344 58.753906 59.792969 13.066407 7.84375 25.429688 11.898437 36.386719 12.109375zm30.019531-262.171874c11.089844 10.398437 21.683594 23.148437 31.015625 37.511718 9.328125 14.363282 16.667969 29.21875 21.664062 43.582032-6.285156 2.730468-12.898437 4.066406-19.453124 4.066406-16.066407-.003906-31.75-7.921875-41.132813-22.367188-13.210937-20.335937-9.523437-46.808594 7.90625-62.792968zm74.640625 128.730468c2.851562-26.878906-7.851562-63.683594-31.046875-99.390625-23.199219-35.714843-52.480469-60.453125-78.199219-68.769531 13.554688-6 30.515625-12.519531 48.648438-17.09375 55.25-13.941406 94.324218-3.976562 116.144531 29.609375 21.78125 33.527344 15.0625 73.203125-19.972656 117.921875-11.578125 14.78125-24.515625 27.71875-35.574219 37.722656zm51.191406-33.476562c12.347656-16.609375 21.109375-32.882813 26.257813-48.628906l10.648437 16.386718c6.566406 10.113282 3.757813 22.019532-6.425781 30.253906-15.082031 12.195313-27.859375 4.074219-30.480469 1.988282zm72.597656-29.347656-17.246093 11.203124c.460937-7.601562-1.410157-15.40625-5.871094-22.269531l-15.878906-24.445312 29.542969-19.191407 15.878906 24.449219c3.183594 4.898438 8.601562 20.679688-6.425782 30.253907zm0 0"/></svg>