<?xml version="1.0"?>
<svg xmlns="http://www.w3.org/2000/svg" viewBox="0 0 64 64" width="512" height="512"><g id="Flat_Icon" data-name="Flat Icon"><rect x="3" y="6" width="58" height="40" rx="4" ry="4" style="fill:#57b7eb"/><path d="M28,31A16,16,0,0,1,12,15V6H7a4,4,0,0,0-4,4V42a4,4,0,0,0,4,4H57a4,4,0,0,0,4-4V31Z" style="fill:#4891d3"/><polygon points="44 54 20 54 25 46 39 46 44 54" style="fill:#a1d51c"/><path d="M16,54H48a4,4,0,0,1,4,4v0a0,0,0,0,1,0,0H12a0,0,0,0,1,0,0v0A4,4,0,0,1,16,54Z" style="fill:#a1d51c"/><path d="M3,38H61a0,0,0,0,1,0,0v4a4,4,0,0,1-4,4H7a4,4,0,0,1-4-4V38A0,0,0,0,1,3,38Z" style="fill:#a1d51c"/><path d="M53,23a6.83,6.83,0,0,0-.09-1.11L56,20.1l-3-5.2-3.11,1.8A7.81,7.81,0,0,0,48,15.59V12H42v3.59a7.81,7.81,0,0,0-1.92,1.11L37,14.9l-3,5.2,3.12,1.79a6.89,6.89,0,0,0,0,2.22L34,25.9l3,5.2,3.11-1.8A7.81,7.81,0,0,0,42,30.41V34h6V30.41a7.81,7.81,0,0,0,1.92-1.11L53,31.1l3-5.2-3.12-1.79A6.83,6.83,0,0,0,53,23Zm-8,3a3,3,0,1,1,3-3A3,3,0,0,1,45,26Z" style="fill:#fcbc04"/><path d="M25.07,23a6.5,6.5,0,0,0-.1-1.09l2-1.18-2-3.46-2,1.17a6.19,6.19,0,0,0-1.9-1.09V15h-4v2.35a6,6,0,0,0-1.89,1.09l-2-1.17-2,3.46,2,1.18a5.46,5.46,0,0,0,0,2.18l-2,1.18,2,3.46,2-1.17a6,6,0,0,0,1.89,1.09V31h4V28.65A6.19,6.19,0,0,0,23,27.56l2,1.17,2-3.46-2-1.18A6.5,6.5,0,0,0,25.07,23Zm-6,2a2,2,0,1,1,2-2A2,2,0,0,1,19.07,25Z" style="fill:#fcbc04"/><path d="M15,21V18.34l-1.86-1.07-2,3.46,2,1.18a5.46,5.46,0,0,0,0,2.18l-2,1.18,2,3.46,2-1.17a6,6,0,0,0,1.89,1.09V31h4V28.76A8,8,0,0,1,15,21Z" style="fill:#e59730"/><path d="M43.94,25.8A3,3,0,0,1,42,23.12a15.48,15.48,0,0,1-1.95-6.44L37,14.9l-3,5.2,3.12,1.79a6.89,6.89,0,0,0,0,2.22L34,25.9l3,5.2,3.11-1.8A7.81,7.81,0,0,0,42,30.41V34h6V30.41a7.93,7.93,0,0,0,1.32-.7A15.42,15.42,0,0,1,43.94,25.8Z" style="fill:#e59730"/><path d="M52.26,30.65l.77.45.16-.29C52.88,30.76,52.57,30.72,52.26,30.65Z" style="fill:#e59730"/><path d="M16,56H48a4,4,0,0,1,3.45,2H52a4,4,0,0,0-4-4H16a4,4,0,0,0-4,4h.55A4,4,0,0,1,16,56Z" style="fill:#a1d51c"/><path d="M16,56H48a4,4,0,0,1,3.45,2H52a4,4,0,0,0-4-4H16a4,4,0,0,0-4,4h.55A4,4,0,0,1,16,56Z" style="fill:#c4f236"/><polygon points="39 46 25 46 21.88 51 39 46" style="fill:#7ab92d"/><path d="M17,38H61a0,0,0,0,1,0,0v3a0,0,0,0,1,0,0H20a3,3,0,0,1-3-3v0A0,0,0,0,1,17,38Z" style="fill:#c4f236"/><circle cx="53" cy="42" r="1" style="fill:#fcbc04"/><circle cx="49" cy="42" r="1" style="fill:#fcbc04"/><path d="M25,12.84a1,1,0,0,1-.85-.48A1,1,0,0,1,24.48,11a13.24,13.24,0,0,1,10.8-1.41A1,1,0,0,1,36,10.81a1,1,0,0,1-1.24.68,11.2,11.2,0,0,0-9.2,1.2A1,1,0,0,1,25,12.84Z" style="fill:#a1d51c"/><path d="M31.5,35a13.52,13.52,0,0,1-7-2,1,1,0,0,1-.33-1.38,1,1,0,0,1,1.37-.33,11.44,11.44,0,0,0,6,1.69,10.77,10.77,0,0,0,2.29-.25,1,1,0,1,1,.42,2A12.78,12.78,0,0,1,31.5,35Z" style="fill:#a1d51c"/></g></svg>
